<?xml version="1.0" standalone="no"?>
<!DOCTYPE svg PUBLIC "-//W3C//DTD SVG 20010904//EN"
 "http://www.w3.org/TR/2001/REC-SVG-20010904/DTD/svg10.dtd">
<svg version="1.0" xmlns="http://www.w3.org/2000/svg"
 width="2288.000000pt" height="2288.000000pt" viewBox="0 0 2288.000000 2288.000000"
 preserveAspectRatio="xMidYMid meet">
<metadata>
Created by potrace 1.11, written by Peter Selinger 2001-2013
</metadata>
<g transform="translate(0.000000,2288.000000) scale(0.100000,-0.100000)"
fill="#000000" stroke="none">
<path d="M10730 16080 c-1979 -57 -3764 -289 -5385 -701 -656 -167 -1340 -385
-1895 -604 -1846 -730 -3017 -1681 -3349 -2717 -77 -243 -112 -529 -93 -755
25 -290 94 -532 228 -803 576 -1162 2213 -2178 4619 -2865 808 -231 1649 -409
2665 -565 545 -84 1487 -181 2115 -220 1249 -76 2361 -76 3610 0 1150 70 2429
241 3489 465 2504 531 4444 1419 5419 2480 466 507 705 1030 724 1581 12 335
-57 647 -213 974 -358 746 -1147 1433 -2324 2021 -1699 850 -4042 1419 -6715
1633 -232 19 -829 52 -1175 66 -356 14 -1366 20 -1720 10z m6809 -1733 c-2 -2
-51 -30 -109 -62 -159 -88 -238 -144 -371 -260 -66 -57 -149 -115 -168 -116
-18 -2 -45 2 -49 6 -17 16 106 116 298 241 94 61 389 207 399 198 2 -2 2 -5 0
-7z m926 -204 c22 -11 51 -24 65 -28 24 -7 102 -61 194 -132 22 -18 67 -51 99
-75 32 -24 80 -61 105 -84 26 -22 103 -86 172 -141 148 -120 199 -171 318
-321 145 -184 302 -414 302 -444 0 -13 -35 -2 -115 38 -38 19 -80 34 -91 34
-12 0 -111 32 -220 71 -452 161 -712 238 -857 254 -49 6 -51 5 -27 -9 14 -8
65 -24 114 -35 48 -12 100 -27 115 -35 14 -8 55 -24 91 -36 182 -61 267 -93
281 -106 9 -8 40 -21 70 -30 74 -21 192 -65 204 -75 17 -16 -12 -10 -141 31
-122 39 -254 66 -194 40 14 -6 36 -21 50 -34 14 -13 66 -37 115 -54 50 -17
137 -51 195 -75 l105 -45 3 -41 c4 -46 2 -47 -59 -26 -36 13 -389 121 -455
140 -11 3 8 -8 40 -23 32 -16 64 -36 70 -44 6 -8 34 -22 61 -30 83 -24 285
-112 282 -122 -2 -5 -21 -17 -44 -27 l-40 -17 -269 89 c-368 122 -470 151
-503 144 -18 -4 -121 19 -297 65 -335 89 -618 160 -622 156 -5 -6 273 -123
413 -174 77 -29 186 -66 243 -83 86 -26 101 -33 91 -45 -16 -19 -46 -18 -110
5 -80 29 -395 134 -551 184 -109 35 -145 42 -180 38 l-43 -6 155 -66 c85 -36
246 -101 357 -145 112 -43 203 -82 203 -86 0 -21 -56 -4 -285 82 -270 103
-709 240 -766 240 -10 0 -20 4 -23 8 -2 4 15 68 39 142 24 74 61 191 83 260
22 69 69 190 105 270 36 80 73 173 82 205 10 33 18 61 20 63 6 8 192 -55 265
-90 47 -23 108 -44 135 -48 49 -7 375 -128 509 -189 67 -31 623 -187 632 -178
8 8 -134 64 -349 137 -340 117 -476 165 -624 223 -78 31 -184 69 -235 85 -51
17 -127 46 -168 65 -42 20 -88 39 -103 42 -32 8 -33 16 -7 73 21 46 24 47 118
36 39 -5 52 -11 52 -23 0 -9 21 -38 48 -63 45 -45 58 -51 307 -136 144 -49
299 -105 346 -125 47 -21 94 -37 106 -37 11 0 51 -9 88 -21 37 -11 69 -18 73
-15 8 8 -220 114 -378 176 -74 29 -185 72 -247 96 -61 24 -121 44 -132 44 -27
0 -73 43 -50 48 21 4 204 -66 538 -205 305 -127 527 -213 544 -213 20 1 -24
30 -93 64 -36 17 -96 50 -135 73 -38 23 -105 56 -148 74 -54 22 -83 40 -94 60
-12 20 -54 45 -152 92 -75 36 -146 68 -159 72 -13 4 -21 9 -18 12 9 9 149 -37
234 -78 47 -23 91 -38 101 -34 17 5 187 -87 341 -186 43 -27 80 -49 83 -49 16
0 5 30 -13 40 -11 6 -20 20 -20 30 0 27 -61 70 -239 168 -163 91 -234 136
-226 144 9 9 78 -8 120 -29z m-1755 -336 c-1 -30 -68 -95 -216 -208 -160 -122
-315 -247 -388 -311 l-39 -34 -5 -294 c-3 -178 -8 -285 -13 -272 -5 13 -13 21
-18 18 -8 -5 -36 -111 -44 -166 -2 -15 -7 -1 -11 34 -5 36 -4 90 2 140 15 108
5 402 -14 434 -8 12 -19 22 -24 22 -5 0 -24 -10 -43 -22 -45 -30 -49 -62 -35
-284 6 -94 7 -197 4 -228 -7 -54 -9 -56 -37 -56 l-29 0 0 84 c0 103 -19 336
-29 354 -10 19 -40 -17 -54 -65 -7 -25 -11 -175 -12 -428 0 -263 -4 -396 -11
-409 -22 -36 -25 4 -14 174 6 93 9 178 6 187 -3 10 -6 68 -6 128 -3 266 -18
361 -52 327 -10 -10 -15 -94 -20 -360 -8 -368 -18 -544 -34 -577 -16 -34 -21
84 -11 275 12 241 14 462 4 543 -7 55 -12 67 -27 67 -33 0 -161 -72 -172 -96
-8 -17 -19 -24 -39 -24 -23 0 -30 -6 -36 -27 -7 -26 -8 -283 -2 -468 3 -74
-12 -137 -28 -121 -3 3 -10 96 -15 207 -8 212 -19 276 -45 286 -9 3 -59 1
-112 -6 -77 -10 -113 -21 -187 -56 -56 -27 -98 -42 -111 -39 -33 9 -44 -42
-53 -249 -4 -104 -11 -191 -14 -194 -3 -4 -7 45 -7 108 -2 174 -11 243 -31
247 -25 5 -30 -27 -32 -191 l-1 -142 -25 3 c-14 2 -29 8 -35 13 -5 5 -12 83
-15 174 -5 154 -10 188 -27 171 -10 -9 -22 -126 -23 -216 0 -88 -7 -120 -26
-120 -26 0 -32 36 -28 155 5 129 -2 158 -33 139 -31 -19 -43 -57 -44 -144 -1
-141 -16 -139 -24 3 -8 130 -10 136 -50 121 -26 -10 -45 -59 -56 -147 -14
-114 -16 -119 -47 -115 -26 3 -27 4 -25 66 3 74 -9 105 -40 100 -23 -3 -30
-20 -44 -102 -9 -54 -36 -83 -53 -56 -5 8 -10 47 -10 86 l0 72 -71 37 c-49 26
-74 34 -81 27 -6 -6 -15 -53 -19 -104 -5 -51 -13 -109 -19 -128 -5 -19 -10
-63 -10 -97 l0 -63 285 0 c308 0 327 -3 374 -54 34 -36 19 -44 -24 -12 -37 29
-95 56 -119 56 -8 0 -36 -22 -62 -50 -26 -27 -55 -50 -65 -50 -9 0 -38 10 -65
21 -55 25 -140 23 -245 -7 -79 -22 -84 -35 -103 -238 -11 -120 -19 -166 -36
-202 -18 -35 -20 -51 -12 -68 7 -15 5 -44 -5 -96 -8 -45 -12 -104 -10 -145 4
-51 -6 -153 -38 -375 -24 -168 -69 -483 -100 -700 -30 -217 -57 -400 -60 -406
-2 -8 -33 -4 -102 12 -223 54 -568 94 -812 94 -116 0 -264 15 -556 56 -60 8
-117 17 -126 20 -24 7 -54 292 -46 433 8 122 45 370 81 534 41 185 63 311 90
522 15 110 35 229 45 265 11 36 22 76 25 90 4 18 28 39 88 76 115 71 199 116
205 110 2 -2 15 -64 28 -138 13 -73 31 -173 39 -223 9 -49 19 -124 22 -165 3
-41 21 -165 40 -275 44 -264 70 -456 89 -644 21 -214 26 -192 -54 -229 -107
-50 -152 -118 -95 -144 22 -10 31 -9 58 7 92 55 105 59 167 47 36 -6 85 -27
128 -52 102 -60 142 -70 215 -53 79 18 148 57 210 118 52 52 106 135 87 135
-5 0 -31 -18 -56 -40 -84 -73 -147 -91 -164 -47 -44 111 -75 242 -96 407 -25
188 -31 225 -128 775 -52 288 -88 542 -102 710 l-6 70 108 76 c147 104 346
219 377 219 9 0 51 20 94 45 82 47 199 95 233 95 11 0 35 -16 52 -35 36 -41
47 -44 47 -12 0 84 -51 150 -194 251 -78 55 -97 75 -129 131 -29 50 -47 70
-73 81 -44 19 -58 10 -49 -30 11 -55 9 -200 -4 -239 -16 -47 -45 -75 -206
-196 -147 -111 -254 -181 -401 -264 -114 -64 -434 -220 -440 -215 -3 3 215
873 243 971 9 29 10 29 93 31 108 3 200 41 200 82 0 10 -9 10 -47 -1 -97 -30
-136 -22 -258 51 -170 100 -237 113 -384 74 -91 -25 -166 -72 -166 -106 0 -28
41 -30 87 -4 22 12 42 20 45 17 3 -3 -15 -91 -41 -194 -51 -210 -94 -402 -188
-825 -35 -158 -66 -288 -69 -288 -7 0 -24 84 -35 168 -4 32 -2 82 6 122 12 63
11 70 -7 102 -17 27 -26 82 -48 308 -16 151 -28 327 -29 390 0 109 2 123 47
275 26 88 68 225 94 304 l47 144 81 -7 c98 -8 234 -36 335 -69 41 -14 102 -28
135 -31 173 -19 346 -53 495 -97 91 -27 199 -56 240 -65 84 -19 94 -25 157
-106 l44 -58 78 0 c74 0 81 2 121 34 50 40 102 103 120 147 13 31 14 31 69 24
83 -10 313 -55 332 -66 15 -8 16 -15 2 -86 -8 -43 -28 -132 -44 -198 -50 -197
-79 -352 -91 -484 l-11 -125 27 -23 c22 -19 39 -23 89 -23 34 0 73 0 87 -1 49
-2 354 103 528 182 169 76 282 141 282 161 0 12 55 34 108 42 53 8 55 -5 5
-53 l-38 -36 32 -3 c33 -3 69 15 260 134 54 34 122 73 152 88 99 49 372 244
576 411 56 46 125 93 155 106 31 13 101 61 158 108 57 48 121 100 142 116 22
17 64 50 95 74 53 42 122 74 137 64 5 -2 8 -10 8 -16z m-6800 -234 c0 -27 -9
-86 -21 -133 -11 -47 -29 -125 -39 -175 -10 -49 -30 -130 -45 -180 -17 -59
-28 -123 -31 -185 -2 -52 -11 -115 -19 -140 -8 -25 -24 -103 -35 -175 -12 -71
-27 -153 -35 -180 -40 -141 -89 -392 -96 -495 -9 -109 -19 -187 -73 -534 -19
-127 -26 -151 -45 -165 -38 -29 -57 -166 -26 -191 21 -17 19 -25 -15 -63 -33
-38 -39 -80 -15 -107 11 -13 13 -24 5 -51 -6 -19 -24 -128 -41 -242 -38 -266
-79 -470 -123 -622 -53 -184 -67 -218 -96 -226 -64 -18 -598 5 -619 26 -6 6
-11 44 -13 85 -2 61 -6 75 -20 78 -13 2 -18 -6 -23 -35 -12 -70 -6 -67 -109
-59 -52 3 -141 18 -198 32 -101 26 -106 26 -233 15 -71 -7 -253 -15 -402 -18
l-273 -6 0 49 c0 85 19 339 45 609 22 222 29 269 52 323 22 53 25 73 20 125
-3 34 -11 83 -18 109 -10 36 -10 90 -1 259 7 118 12 225 11 239 -1 14 6 63 16
110 22 107 17 204 -14 256 -22 37 -22 37 -11 313 11 299 29 541 60 831 l20
185 37 31 c179 155 498 231 943 225 314 -4 325 -4 485 1 105 4 173 11 225 25
41 11 91 23 110 26 34 6 35 6 13 -10 -39 -27 -28 -38 34 -35 75 5 112 32 61
45 -12 4 -20 8 -17 11 2 3 81 12 174 21 94 9 211 22 260 29 144 21 135 23 135
-31z m-3161 -8 c53 -8 162 -17 244 -21 140 -6 147 -7 152 -28 4 -21 27 -339
45 -626 5 -85 16 -197 24 -248 39 -242 45 -710 16 -1204 -9 -142 -8 -182 2
-200 26 -45 2 -1059 -25 -1084 -6 -7 -26 -15 -44 -19 -30 -6 -32 -4 -38 27
-15 90 -35 280 -45 428 -14 216 -21 283 -85 810 -29 245 -74 616 -100 825 -25
209 -47 407 -48 439 l-2 60 79 32 c85 36 126 67 126 96 0 16 -8 18 -62 17 -35
0 -101 -4 -148 -8 -108 -9 -264 3 -357 27 -69 19 -73 19 -101 2 -15 -10 -43
-36 -61 -59 -23 -29 -44 -44 -74 -51 -62 -16 -87 -28 -94 -46 -11 -30 25 -44
109 -44 49 0 78 -4 78 -11 0 -13 -328 -670 -342 -684 -6 -7 -22 6 -46 35 -20
25 -92 107 -159 182 -68 75 -123 143 -123 150 0 17 -43 81 -93 138 -21 25 -71
92 -109 150 -39 58 -72 107 -74 109 -8 9 -379 0 -457 -10 -59 -8 -92 -19 -137
-45 -61 -36 -80 -58 -80 -93 0 -31 40 -27 85 9 48 38 77 46 123 31 66 -20 67
-22 69 -123 6 -208 26 -588 53 -1018 47 -735 62 -1040 64 -1299 l1 -243 -47
-19 c-67 -26 -119 -63 -146 -103 -30 -44 -25 -68 15 -79 26 -8 38 -5 65 12 83
53 120 64 228 69 58 2 150 -1 205 -7 105 -11 151 -4 224 33 29 16 58 53 48 63
-3 2 -24 -5 -47 -17 -40 -20 -44 -20 -95 -5 -115 33 -139 48 -152 96 -42 146
-78 434 -98 784 -3 55 -12 332 -21 615 -14 485 -12 656 7 645 4 -3 43 -49 86
-103 43 -53 112 -133 154 -177 42 -44 114 -129 161 -190 47 -60 104 -127 126
-149 l41 -39 64 129 c35 71 131 269 212 439 142 298 243 505 251 514 2 2 6 2
8 0 12 -12 47 -222 56 -331 5 -67 20 -185 34 -261 47 -258 89 -621 91 -792 1
-88 10 -227 19 -310 9 -82 19 -270 23 -417 6 -262 6 -268 -14 -268 -47 0 -113
-33 -152 -76 -44 -46 -47 -59 -30 -98 22 -47 70 -38 149 29 l44 37 208 -7 208
-8 76 28 c41 15 77 25 80 23 2 -3 -3 -67 -12 -143 -17 -153 -18 -152 46 -175
19 -6 108 -14 198 -17 l162 -6 0 -68 0 -69 -72 0 c-54 0 -83 6 -117 22 -49 24
-146 35 -206 24 -25 -5 -39 -14 -45 -31 -7 -19 -19 -25 -57 -30 -26 -3 -106
-15 -178 -26 -118 -19 -155 -21 -405 -14 -151 4 -278 10 -282 13 -4 4 -14 61
-22 126 -9 66 -18 121 -21 124 -14 14 -35 -75 -35 -147 0 -44 -3 -86 -6 -95
-8 -21 -51 -20 -63 2 -13 24 -28 169 -46 427 -20 288 -26 346 -36 339 -5 -3
-9 -134 -9 -292 0 -257 -9 -421 -25 -472 -7 -22 -39 -32 -54 -17 -6 6 -11 47
-11 93 0 79 -14 144 -30 144 -4 0 -11 -27 -14 -60 -3 -33 -9 -87 -12 -120 -3
-33 -12 -66 -19 -73 -14 -15 -191 -49 -369 -72 -87 -11 -166 -14 -295 -10 -97
4 -225 2 -286 -3 -60 -5 -112 -7 -114 -6 -2 2 -10 59 -17 126 -7 68 -20 186
-28 263 -9 77 -20 250 -26 385 -22 499 -84 1148 -156 1630 -20 129 -40 298
-44 375 -11 167 -19 228 -66 474 -38 203 -70 469 -57 481 15 14 158 51 233 59
41 5 219 30 395 55 314 46 451 72 550 106 l51 17 34 -28 c35 -30 97 -55 107
-45 4 3 1 18 -6 32 -6 15 -10 29 -7 31 2 2 28 -9 57 -26 94 -52 143 -63 240
-53 70 8 103 17 180 54 105 50 273 149 364 215 33 24 66 41 74 38 8 -3 57 -12
110 -20z m4752 -92 c25 -65 60 -326 85 -638 9 -110 22 -218 29 -240 11 -32 28
-204 33 -335 2 -42 21 -260 32 -350 27 -233 40 -383 50 -565 6 -110 17 -261
25 -335 20 -177 35 -433 35 -595 0 -72 5 -146 11 -165 10 -34 31 -740 22 -750
-3 -3 -136 -6 -296 -7 -161 -1 -314 -7 -340 -13 -51 -11 -210 -3 -239 11 -9 5
-20 18 -23 29 -5 14 -15 20 -37 20 -16 0 -42 9 -56 21 -34 27 -66 19 -117 -31
-64 -61 -106 -76 -240 -89 -209 -20 -569 -71 -605 -86 -19 -8 -71 -18 -115
-24 -54 -7 -83 -15 -92 -27 -29 -40 -39 -9 -67 212 -15 121 -40 300 -57 398
-54 333 -61 619 -23 946 12 112 19 141 40 171 23 33 25 46 23 125 -1 49 3 121
9 159 6 39 18 156 27 260 20 239 29 298 70 465 19 74 46 203 60 285 26 147 94
463 138 639 l22 90 100 28 c55 16 219 67 365 115 407 131 518 163 610 174 55
6 142 29 245 64 181 60 188 62 233 64 27 1 34 -4 43 -26z m-3713 6 c-2 -6 -22
-18 -43 -26 -22 -8 -67 -25 -100 -38 -64 -25 -158 -55 -172 -55 -4 0 -6 25 -5
55 3 47 7 56 25 60 78 17 300 20 295 4z m9383 -487 c110 -33 198 -66 560 -208
147 -57 272 -104 278 -104 6 0 11 -4 11 -10 0 -19 -75 -10 -135 16 -92 39
-124 50 -210 74 -44 12 -118 34 -165 50 -111 36 -216 60 -263 60 -34 0 -37 -2
-28 -19 11 -21 17 -23 191 -79 69 -22 190 -63 270 -91 80 -28 152 -51 160 -51
22 0 87 -42 73 -47 -7 -3 -74 16 -150 41 -76 25 -170 50 -208 56 -39 6 -99 22
-135 34 -84 30 -240 62 -240 48 0 -15 72 -53 126 -67 30 -8 115 -37 187 -64
108 -40 386 -131 403 -131 7 0 4 -45 -5 -58 -6 -10 -32 -6 -126 23 -252 76
-518 140 -513 123 2 -6 22 -18 45 -27 23 -9 49 -23 60 -32 15 -13 177 -69 425
-146 25 -8 52 -21 60 -30 11 -14 10 -15 -7 -10 -11 3 -58 16 -105 27 -47 12
-202 59 -345 105 -143 46 -298 93 -345 106 -47 12 -88 25 -92 29 -6 4 77 312
107 398 6 16 8 16 116 -16z m1947 -384 c29 -12 51 -23 48 -25 -5 -5 -136 47
-136 54 0 3 8 2 18 -2 9 -4 41 -16 70 -27z m-2038 -73 c52 -24 115 -49 140
-55 25 -7 60 -23 78 -37 47 -36 141 -76 262 -112 210 -64 260 -82 260 -97 0
-24 -1 -24 -330 91 -113 40 -289 101 -392 135 -192 65 -200 70 -177 112 14 25
34 21 159 -37z m2262 4 c44 -12 77 -23 75 -26 -5 -5 -156 33 -165 41 -9 10 8
7 90 -15z m-2881 -129 c123 -39 228 -75 233 -80 7 -7 5 -16 -6 -27 -16 -15
-21 -14 -75 9 -32 14 -102 40 -156 58 -121 40 -192 39 -254 -2 -36 -24 -43
-36 -87 -159 -48 -134 -92 -263 -104 -308 -8 -29 -27 -38 -35 -16 -4 8 13 81
38 163 24 81 51 179 60 217 8 39 25 105 37 149 l21 78 52 -6 c29 -3 153 -37
276 -76z m788 -64 c251 -102 431 -181 418 -184 -7 -1 -103 29 -213 67 -199 69
-411 128 -421 117 -9 -9 59 -45 127 -67 36 -12 92 -36 125 -54 33 -18 130 -63
215 -100 85 -37 181 -81 213 -98 53 -28 58 -33 52 -56 -4 -14 -9 -28 -11 -30
-8 -8 -102 19 -299 85 -184 61 -394 118 -403 109 -10 -10 9 -36 35 -47 15 -6
71 -30 123 -54 52 -23 176 -70 275 -104 203 -69 245 -87 245 -107 0 -18 -16
-16 -80 8 -30 12 -99 34 -152 49 -53 15 -121 42 -150 58 -62 35 -231 107 -290
123 -31 8 -61 31 -124 95 -46 47 -87 96 -90 109 -7 30 9 129 30 178 l15 37
127 -45 c70 -25 175 -65 233 -89z m-1765 34 c4 -36 7 -210 8 -388 1 -327 -3
-365 -34 -334 -10 10 -13 103 -13 395 0 363 5 443 24 407 5 -8 12 -44 15 -80z
m-624 49 c10 -24 12 -84 7 -261 -6 -216 -6 -232 13 -271 11 -22 20 -53 20 -67
0 -18 10 -34 30 -48 28 -21 30 -26 30 -93 0 -63 -2 -70 -24 -80 -21 -10 -24
-20 -35 -123 -16 -159 -14 -206 9 -251 17 -34 20 -59 20 -182 0 -79 -3 -143
-7 -143 -5 0 -17 3 -29 6 -19 5 -22 15 -28 102 -6 92 -27 206 -40 219 -3 3
-12 1 -19 -6 -10 -8 -16 -48 -21 -132 -8 -124 -12 -149 -27 -149 -17 0 -28 40
-34 121 -8 110 -12 129 -30 129 -24 0 -35 -35 -35 -114 0 -41 -3 -81 -6 -90
-12 -31 -22 -15 -29 43 -4 40 -13 65 -26 77 -33 30 -43 5 -49 -131 -4 -69 -10
-128 -14 -132 -16 -16 -26 26 -26 113 0 76 -3 96 -19 115 -29 36 -42 15 -52
-88 -13 -127 -15 -133 -44 -133 -25 0 -25 1 -25 93 0 95 -14 137 -45 137 -24
0 -35 -36 -35 -114 0 -42 -3 -76 -7 -76 -43 1 -50 12 -56 85 -4 40 -11 85 -17
100 -10 26 -12 27 -26 13 -12 -12 -17 -46 -21 -142 -3 -70 -10 -129 -14 -132
-17 -10 -29 48 -29 135 0 57 -5 93 -13 106 -21 28 -34 11 -39 -50 -5 -61 -10
-70 -33 -62 -10 4 -15 20 -15 47 0 34 -3 41 -17 38 -12 -2 -22 -19 -29 -48 -7
-28 -17 -46 -27 -48 -17 -3 -24 15 -29 73 -2 19 -9 31 -20 33 -15 3 -18 -4
-18 -46 0 -37 -4 -51 -16 -56 -9 -4 -19 -4 -22 -2 -2 3 -1 48 3 100 l7 95 61
5 c34 4 175 10 314 16 235 9 256 11 315 35 112 46 208 120 278 216 l30 42 0
191 c-1 173 -3 196 -23 246 -20 52 -21 67 -18 305 2 138 5 253 8 258 10 17 31
5 43 -24z m1520 -115 c36 -8 106 -35 157 -59 51 -25 95 -45 98 -45 14 0 234
-110 240 -120 4 -6 4 -14 1 -18 -11 -11 -149 39 -246 89 -52 27 -151 71 -220
98 -162 63 -177 90 -30 55z m-456 -46 c21 -30 21 -117 1 -124 -31 -12 -63 5
-75 41 -25 76 34 141 74 83z m1862 -143 c26 -19 -1 -20 -36 0 -23 13 -23 14
-4 15 11 0 29 -7 40 -15z m145 -108 c-8 -8 -11 -5 -11 9 0 27 14 41 18 19 2
-9 -1 -22 -7 -28z m-13640 -18 c37 -19 8 -29 -84 -29 -67 0 -99 -4 -114 -15
-22 -15 -40 -65 -66 -174 l-12 -54 -61 -1 -62 -2 -4 93 c-2 51 -7 96 -12 100
-4 4 -16 -3 -27 -16 -14 -17 -19 -39 -19 -86 0 -78 -15 -125 -41 -125 -16 0
-19 7 -19 48 0 49 -17 159 -27 176 -15 24 -28 -41 -29 -149 -3 -180 -13 -427
-19 -433 -9 -9 -15 3 -47 84 -35 90 -42 135 -58 329 -6 76 -13 141 -15 143 -2
2 -8 1 -14 -3 -7 -4 -11 -63 -11 -165 0 -149 -1 -160 -20 -170 -27 -14 -28
-11 -39 135 -6 66 -16 136 -22 155 -13 34 -13 35 -20 10 -4 -14 -7 -91 -8
-171 -1 -153 -7 -209 -23 -209 -20 0 -47 90 -62 204 -9 66 -18 122 -21 125
-12 12 -25 -26 -25 -74 0 -57 -16 -125 -30 -125 -15 0 -22 40 -25 142 -1 76
-6 103 -18 116 -16 15 -18 15 -31 -3 -8 -11 -20 -46 -26 -79 -12 -61 -29 -106
-40 -106 -3 0 -14 6 -24 13 -14 10 -21 34 -27 98 -4 46 -8 85 -8 87 -1 1 -8 2
-16 2 -23 0 -35 -34 -35 -104 0 -50 -3 -66 -14 -66 -15 0 -30 37 -41 103 -6
40 -31 59 -46 36 -5 -8 -9 -46 -9 -85 0 -65 -2 -73 -24 -88 -14 -8 -28 -25
-31 -37 -13 -40 -27 6 -34 109 -4 61 -10 97 -18 99 -23 8 -51 -59 -64 -149
-16 -120 -27 -117 -44 13 -7 55 -37 89 -63 73 -9 -6 -22 -32 -29 -58 -18 -72
-20 -74 -28 -31 -11 56 -21 66 -51 53 -16 -8 -26 -22 -30 -47 -9 -49 -32 -91
-49 -91 -21 0 -19 43 5 91 23 44 75 81 208 148 138 70 281 113 402 122 58 5
137 13 175 18 39 6 198 11 355 12 157 1 328 5 380 9 150 11 290 11 311 -1z
m12327 -1 c18 -18 14 -28 -12 -28 -25 0 -51 22 -39 33 10 11 38 8 51 -5z m-22
-63 c14 -14 24 -31 21 -38 -9 -28 -75 -19 -108 14 -16 16 -18 23 -8 35 19 23
67 17 95 -11z m575 -15 c132 -39 497 -165 507 -175 16 -16 -44 0 -141 39 -62
24 -123 47 -137 51 -47 12 -345 107 -365 115 -48 20 12 7 136 -30z m-1323 -48
c41 -47 62 -86 62 -115 0 -25 -3 -27 -27 -21 -70 17 -134 48 -158 75 -28 34
-31 50 -14 81 10 18 17 20 62 14 39 -5 58 -13 75 -34z m662 -9 c69 -23 80 -30
80 -50 0 -20 -5 -23 -40 -23 -63 0 -50 -24 35 -67 42 -20 85 -46 98 -57 l22
-21 -25 -4 c-14 -2 -55 3 -92 9 -54 11 -70 11 -83 0 -30 -25 -18 -47 34 -65
27 -9 55 -23 63 -32 12 -15 8 -16 -38 -10 -102 12 -96 -24 11 -62 68 -25 105
-47 105 -61 0 -12 -52 -13 -103 -1 -33 8 -39 6 -58 -17 -29 -37 -21 -65 21
-78 40 -13 54 -44 20 -44 -11 0 -37 7 -57 15 -40 17 -73 20 -73 6 0 -28 19
-46 76 -71 34 -16 67 -38 74 -49 6 -12 7 -21 1 -21 -19 0 -186 62 -324 122
-78 33 -169 70 -202 82 -81 30 -105 44 -105 63 0 23 64 10 182 -37 54 -22 105
-40 113 -40 39 0 -7 60 -58 76 -28 8 -57 34 -57 50 0 17 56 2 148 -43 72 -34
97 -36 132 -14 30 20 -20 63 -140 122 -101 51 -148 84 -135 97 6 6 142 -36
208 -65 42 -19 61 -23 69 -15 15 15 3 40 -24 52 -98 40 -122 54 -101 57 12 2
36 -3 52 -12 31 -15 31 -15 41 12 6 15 14 36 20 45 13 23 -9 37 -118 77 -105
39 -144 59 -137 71 10 16 33 12 124 -24 111 -44 135 -48 139 -20 2 17 -5 24
-30 33 -32 12 -32 13 -14 27 28 20 56 18 146 -13z m757 -59 c108 -39 343 -141
357 -155 12 -10 -122 30 -269 82 -127 45 -225 61 -225 37 0 -28 33 -56 95 -81
135 -55 291 -119 310 -127 11 -5 37 -16 58 -24 20 -8 37 -22 37 -30 0 -9 -2
-16 -4 -16 -3 0 -92 34 -198 76 -252 100 -324 124 -365 124 -59 0 -30 -61 40
-82 23 -7 70 -27 105 -45 35 -18 70 -33 78 -33 8 0 36 -11 62 -24 26 -13 85
-39 132 -57 89 -34 110 -46 110 -60 0 -18 -62 -8 -172 27 -62 20 -161 51 -220
70 -106 34 -171 43 -183 24 -10 -16 76 -63 173 -94 51 -17 92 -34 92 -38 0
-11 -36 -2 -156 38 -139 47 -191 45 -164 -7 9 -17 8 -23 -6 -34 -16 -11 -17
-17 -5 -53 13 -38 18 -42 85 -66 127 -45 368 -101 404 -94 24 6 -40 38 -153
77 -91 32 -165 73 -165 91 0 6 11 8 28 4 52 -13 178 -52 267 -84 50 -17 96
-33 102 -35 9 -3 4 -28 -18 -92 -18 -48 -35 -92 -39 -97 -5 -4 -101 20 -214
53 -113 34 -244 70 -291 80 l-86 19 3 -21 c3 -23 73 -64 147 -88 20 -6 57 -22
83 -35 26 -13 102 -42 170 -65 129 -43 165 -63 136 -74 -9 -4 -38 3 -65 16
-85 39 -327 121 -371 126 -38 4 -43 3 -40 -12 1 -10 10 -21 18 -26 45 -22 286
-129 393 -173 43 -17 43 -11 0 -154 l-26 -83 -39 6 c-22 4 -113 32 -201 62
-147 50 -172 55 -269 59 -113 4 -133 -3 -104 -35 42 -46 180 -94 449 -157 66
-15 117 -32 117 -39 0 -6 -8 -27 -17 -47 l-18 -36 -235 63 c-129 35 -329 92
-445 127 l-210 63 -3 33 c-2 18 6 81 17 141 12 59 21 112 21 118 0 11 -154 86
-330 159 -63 26 -132 61 -152 78 -65 51 -41 64 33 18 47 -30 209 -95 274 -110
22 -6 78 -15 125 -22 185 -26 236 -81 145 -157 -25 -20 -45 -45 -45 -54 0 -19
25 -43 60 -59 14 -6 40 -22 59 -35 84 -62 99 -36 259 440 72 215 145 451 163
525 17 74 33 140 35 147 3 13 90 -11 261 -73z m1005 -214 c44 -13 93 -49 66
-50 -35 0 -17 -27 33 -50 28 -14 56 -32 62 -40 7 -10 53 -26 112 -40 103 -23
283 -82 368 -120 33 -15 47 -27 47 -41 0 -11 7 -34 16 -51 19 -36 6 -51 -36
-42 -86 19 -154 51 -174 81 -17 26 -42 40 -140 78 -119 46 -321 105 -363 105
-13 0 -23 -6 -23 -14 0 -8 -8 -17 -17 -21 -23 -7 -74 -91 -67 -110 11 -27 76
-67 197 -122 105 -48 130 -55 183 -55 55 0 66 4 108 36 26 20 51 36 56 36 4 0
37 -17 72 -38 36 -20 110 -57 164 -81 75 -32 104 -50 119 -74 19 -30 87 -76
112 -77 6 0 13 8 15 17 3 15 16 17 86 18 45 0 82 -1 82 -2 0 -1 -35 -30 -77
-66 -94 -78 -209 -153 -283 -186 -30 -13 -112 -50 -182 -83 -143 -65 -256
-101 -377 -118 -142 -21 -171 -13 -531 145 -91 40 -181 75 -200 78 -45 7 -135
41 -178 67 -94 58 83 49 218 -11 52 -23 110 -41 146 -45 32 -3 80 -16 105 -30
41 -21 79 -32 177 -48 83 -14 -13 51 -118 80 -36 9 -119 43 -185 74 -66 32
-158 75 -204 96 -47 21 -78 40 -69 42 22 4 200 -54 298 -98 47 -22 110 -44
140 -50 30 -6 73 -20 96 -32 31 -15 46 -18 60 -10 14 8 29 5 64 -13 76 -38
320 -107 269 -76 -20 13 -490 211 -714 302 -106 43 -169 74 -167 82 12 42 132
148 195 170 11 4 47 -5 90 -25 91 -39 215 -82 318 -108 43 -11 145 -48 226
-81 210 -86 288 -114 392 -143 151 -41 118 -16 -109 84 -52 23 -131 61 -175
85 -97 52 -332 150 -504 211 -69 25 -129 49 -134 53 -4 4 41 52 100 107 108
100 166 174 156 200 -6 17 25 19 79 4z m-13948 -154 c-1 -37 -6 -61 -15 -67
-19 -12 -106 -11 -129 1 -19 10 -40 59 -40 96 0 26 24 32 125 30 l60 -1 -1
-59z m11231 -5 c17 2 63 4 103 4 88 0 102 -13 102 -87 0 -48 0 -48 -32 -48
-18 0 -64 12 -103 26 -38 14 -97 29 -129 35 -65 10 -86 22 -86 49 0 23 23 30
75 23 22 -3 54 -4 70 -2z m-13264 -163 c-38 -137 -53 -238 -54 -375 -2 -104
-3 -112 -20 -107 -13 4 -21 -3 -32 -30 -8 -19 -15 -45 -15 -57 0 -12 -5 -19
-12 -17 -54 18 -11 457 58 589 15 30 95 111 102 104 1 -1 -11 -50 -27 -107z
m13869 -12 c52 -24 109 -49 127 -56 17 -6 40 -21 50 -32 l18 -21 -66 7 c-111
11 -272 73 -303 117 -38 55 35 48 174 -15z m1395 34 c3 -5 -3 -10 -14 -10 -11
0 -23 5 -26 10 -3 6 3 10 14 10 11 0 23 -4 26 -10z m-15176 -555 c0 -27 -6
-63 -13 -80 l-13 -30 -7 25 c-28 115 -29 146 -3 179 17 20 36 -31 36 -94z
m15283 -101 c189 -75 344 -145 363 -166 20 -21 -170 0 -385 42 -118 23 -219
46 -223 50 -5 4 3 30 17 58 14 28 26 60 26 72 0 11 2 20 5 20 3 0 92 -34 197
-76z m-15076 -71 c44 -81 78 -127 134 -184 74 -75 76 -76 147 -87 100 -16 313
-15 396 3 94 20 167 55 216 104 46 46 49 46 22 -8 -39 -76 -138 -143 -262
-177 -47 -13 -101 -18 -209 -18 -134 0 -149 2 -195 24 -27 14 -56 23 -63 22
-22 -5 -95 44 -146 97 -67 72 -98 146 -104 249 -2 45 -2 82 1 82 2 0 31 -48
63 -107z m-110 -27 c18 -89 12 -186 -12 -186 -14 0 -74 75 -74 94 -1 26 56
184 63 177 4 -4 15 -42 23 -85z m14099 -15 c132 -43 312 -104 400 -136 88 -31
170 -59 182 -62 12 -3 28 -11 34 -19 9 -11 5 -14 -22 -14 -19 0 -59 7 -89 15
-30 8 -82 20 -115 26 -32 6 -138 35 -235 65 -191 59 -366 102 -376 92 -14 -14
11 -28 94 -54 48 -15 134 -44 192 -64 58 -21 145 -50 195 -65 49 -15 115 -40
145 -55 31 -15 74 -33 97 -39 77 -21 110 -71 46 -71 -14 0 -62 11 -107 24 -44
13 -126 32 -181 41 -119 21 -352 83 -471 126 -69 25 -84 34 -79 48 6 13 25
104 41 199 3 12 5 22 7 22 1 0 110 -36 242 -79z m-12162 -216 c9 -4 17 -17 17
-29 0 -21 -6 -22 -157 -35 -325 -27 -328 -27 -347 0 -21 30 -20 55 2 69 19 12
453 7 485 -5z m12227 -114 c102 -38 198 -73 215 -77 16 -4 47 -20 67 -35 21
-15 67 -35 103 -44 36 -10 68 -22 71 -26 5 -9 -22 -79 -30 -79 -3 0 -95 35
-203 79 -109 43 -234 91 -278 106 -44 16 -87 34 -95 40 -8 7 -35 23 -60 35
-25 12 -53 30 -63 38 -18 16 -18 17 0 23 43 17 96 6 273 -60z m-114 -152 c110
-44 270 -108 357 -142 117 -45 157 -65 155 -77 -6 -28 -56 -22 -153 19 -52 23
-98 41 -101 41 -4 0 -86 38 -183 84 -97 46 -209 96 -249 112 -55 21 -69 30
-55 35 10 4 21 8 24 8 4 1 96 -35 205 -80z m144 -298 c80 -39 178 -81 218 -93
58 -18 72 -26 72 -43 0 -44 -12 -44 -120 -1 -142 58 -213 95 -287 150 -65 49
-90 82 -50 66 12 -4 87 -40 167 -79z m-5813 -280 c30 -19 31 -22 20 -50 -11
-29 -14 -31 -64 -31 l-53 0 0 44 c0 60 36 73 97 37z"/>
<path d="M17553 13763 c-25 -10 -14 -52 17 -68 41 -21 55 -19 71 11 12 24 12
28 -10 45 -22 18 -52 23 -78 12z"/>
<path d="M17668 13619 c-14 -16 -31 -50 -38 -75 -11 -39 -11 -47 3 -61 23 -23
103 -20 137 6 16 11 40 23 54 27 19 4 27 14 32 39 13 69 -18 95 -110 95 -47 0
-56 -3 -78 -31z"/>
<path d="M18189 13611 c13 -12 31 -21 41 -21 39 0 297 -72 321 -90 15 -10 54
-26 88 -35 73 -19 232 -75 401 -143 134 -53 340 -122 366 -122 9 0 14 7 12 18
-3 18 -72 55 -183 98 -38 14 -99 39 -135 55 -97 42 -625 215 -712 233 -41 9
-108 18 -149 22 l-74 5 24 -20z"/>
<path d="M17300 13511 c0 -11 8 -27 17 -36 18 -19 171 -95 190 -95 16 0 170
-48 208 -65 17 -7 57 -20 90 -30 33 -9 110 -36 170 -60 105 -41 195 -64 195
-50 0 10 -218 111 -311 143 -47 17 -102 42 -123 55 -20 14 -58 33 -84 43 -26
9 -74 28 -107 42 -95 39 -196 72 -222 72 -16 0 -23 -6 -23 -19z"/>
<path d="M18310 13455 c0 -14 60 -39 171 -69 180 -50 390 -128 548 -205 25
-11 58 -21 74 -21 16 0 63 -14 105 -31 213 -87 255 -99 268 -78 11 18 -56 73
-108 88 -24 7 -81 30 -128 51 -229 102 -527 196 -775 246 -121 24 -155 28
-155 19z"/>
<path d="M9677 13566 c-20 -8 -43 -18 -50 -23 -6 -5 -31 -15 -54 -22 -24 -6
-43 -15 -43 -19 0 -13 213 -1 243 14 26 14 36 37 19 48 -21 13 -81 14 -115 2z"/>
<path d="M7667 12993 c-15 -14 -5 -29 37 -56 40 -25 44 -31 50 -80 9 -79 7
-420 -4 -617 -13 -217 -39 -474 -90 -864 -21 -166 -46 -373 -55 -461 -19 -194
-38 -320 -66 -452 l-21 -99 -45 -24 c-50 -26 -137 -90 -131 -96 2 -1 114 -12
248 -24 395 -33 944 -98 1269 -150 79 -13 141 -18 173 -14 71 10 83 39 91 211
4 73 14 168 22 212 17 80 17 159 1 164 -15 4 -58 -92 -63 -141 -3 -26 -18 -74
-34 -106 -16 -33 -29 -65 -29 -71 0 -7 -22 -33 -48 -57 -37 -35 -61 -48 -101
-57 -100 -21 -252 -13 -486 25 -241 40 -248 43 -288 119 -19 35 -22 60 -25
220 -7 275 25 787 53 884 l16 53 42 -6 c72 -11 223 -95 252 -140 9 -14 29 -68
45 -121 29 -103 46 -130 74 -119 33 13 50 64 52 164 2 110 4 124 50 365 19 99
37 225 40 280 l6 100 -30 -31 c-20 -22 -36 -56 -51 -115 -34 -124 -52 -158
-120 -222 l-62 -59 -138 4 c-77 1 -143 6 -146 10 -7 7 50 499 86 748 25 166
66 359 80 376 6 7 32 20 59 29 41 14 63 14 161 5 152 -15 364 -56 416 -81 59
-28 137 -117 162 -184 24 -64 25 -108 10 -345 -8 -128 -8 -173 1 -190 7 -12
16 -18 20 -14 10 10 33 95 85 315 40 174 81 284 135 368 l40 62 -23 8 c-13 5
-50 12 -83 16 -99 11 -177 26 -209 40 -16 7 -89 22 -162 34 -73 12 -150 28
-172 36 -22 7 -93 19 -158 24 -65 6 -149 16 -188 21 -38 5 -122 14 -186 20
-139 12 -297 37 -321 50 -10 6 -32 10 -50 10 -18 1 -62 7 -98 15 -75 17 -84
17 -93 8z"/>
<path d="M9305 11701 c-11 -5 -27 -17 -36 -27 -56 -65 1 -194 85 -194 42 0 44
7 15 45 -20 25 -21 31 -10 81 11 48 10 58 -3 79 -18 27 -21 28 -51 16z"/>
<path d="M5795 13290 c-4 -7 -3 -16 3 -22 14 -14 45 -2 40 15 -6 16 -34 21
-43 7z"/>
<path d="M11045 13003 c-4 -21 -10 -95 -14 -164 -7 -136 -19 -169 -67 -191
-25 -12 -42 -7 -263 74 -44 16 -73 19 -165 16 -105 -4 -118 -7 -260 -58 -147
-54 -149 -55 -233 -134 -63 -59 -93 -96 -118 -147 -83 -165 -146 -353 -182
-543 -25 -131 -24 -506 1 -671 22 -148 94 -433 135 -540 51 -131 312 -470 400
-521 25 -15 70 -44 99 -66 80 -60 225 -91 432 -92 l155 -1 77 38 c42 20 111
60 152 87 71 48 77 56 138 163 118 210 158 339 158 513 0 96 -2 105 -35 172
-20 39 -50 82 -66 96 -39 33 -95 35 -134 4 -26 -21 -27 -24 -22 -92 3 -54 14
-91 42 -151 44 -96 52 -155 35 -277 -22 -162 -88 -319 -159 -380 -77 -66 -210
-118 -302 -118 -52 0 -98 28 -159 96 -50 55 -126 180 -156 255 -67 170 -160
522 -199 749 -8 52 -22 109 -30 125 -18 36 -78 318 -99 465 -36 244 -38 538
-5 699 23 115 126 212 254 241 99 22 327 -41 416 -116 71 -59 165 -187 230
-313 46 -90 71 -127 92 -137 15 -8 32 -12 37 -9 15 9 11 125 -6 170 -30 81
-113 515 -128 675 -10 107 -38 152 -51 83z"/>
<path d="M9626 10435 c-16 -16 -21 -46 -17 -95 3 -34 8 -37 69 -42 l52 -5 0
32 c0 35 -33 90 -66 112 -19 12 -24 12 -38 -2z"/>
<path d="M16891 10911 c-37 -24 68 -101 137 -101 29 0 32 3 32 30 0 24 -7 33
-39 50 -47 24 -111 34 -130 21z"/>
<path d="M17105 10810 c-9 -15 46 -61 69 -58 25 4 35 46 14 59 -18 12 -75 11
-83 -1z"/>
<path d="M17825 11100 c3 -6 -6 -15 -20 -20 -15 -6 -25 -16 -23 -23 14 -41
282 -135 405 -141 70 -4 94 -10 170 -46 48 -23 117 -50 153 -60 36 -9 101 -34
145 -54 51 -23 94 -36 120 -35 39 1 37 2 -60 50 -370 181 -564 261 -749 310
-118 31 -151 35 -141 19z"/>
<path d="M18710 11056 c0 -53 133 -123 170 -90 12 12 10 18 -15 45 -33 35 -98
68 -132 69 -18 0 -23 -6 -23 -24z"/>
<path d="M18940 10960 c0 -18 48 -60 69 -60 31 0 34 18 7 45 -25 25 -76 35
-76 15z"/>
</g>
</svg>
